<svg xmlns="http://www.w3.org/2000/svg" width="114" height="114" viewBox="0 0 114 114">
    <g fill="none" fill-rule="evenodd">
        <g fill="#05C6DD" fill-rule="nonzero">
            <g>
                <path d="M28.901 20.103c-.719-.331-1.505-.49-2.296-.466h-3.21v7.53h3.21c.788.029 1.571-.137 2.28-.481.574-.299 1.044-.763 1.35-1.333.578-1.247.578-2.686 0-3.934-.304-.561-.768-1.02-1.334-1.316z" transform="translate(-1467 -157) translate(1467 157)"/>
                <path d="M51.862 0H2.248C1.006 0 0 1.006 0 2.248v49.614c0 1.244 1.004 2.255 2.248 2.264h49.614c1.25 0 2.264-1.014 2.264-2.264V2.248C54.117 1.004 53.106 0 51.862 0zM34.585 27.296c-.645 1.152-1.625 2.081-2.81 2.665-1.376.678-2.897 1.009-4.431.964H23.33v7.321h-4.817v-22.51h8.911c1.514-.04 3.015.297 4.368.979 1.159.616 2.117 1.553 2.761 2.697.655 1.223.981 2.595.948 3.982.03 1.357-.286 2.7-.916 3.902zM86.56 20.905L83.782 29.431 89.514 29.431 86.736 20.905z" transform="translate(-1467 -157) translate(1467 157)"/>
                <path d="M101.428 0H61.913c-1.241 0-2.248 1.006-2.248 2.248v49.614c0 1.244 1.004 2.255 2.248 2.264h49.614c1.25 0 2.264-1.014 2.264-2.264v-39.66L101.428 0zm-9.04 38.31l-1.605-5.154h-8.205l-1.606 5.154h-5.186l7.787-22.575h6.15L97.51 38.31h-5.122zM51.862 59.601H2.248c-.596 0-1.168.237-1.59.659-.421.421-.658.993-.658 1.589v49.614c0 1.242 1.006 2.248 2.248 2.248h49.614c1.244 0 2.255-1.004 2.264-2.248V61.85c-.009-1.244-1.02-2.248-2.264-2.248zM36.335 79.334h-6.904v18.61h-4.72v-18.61h-6.905v-3.87h18.53v3.87zM111.463 59.601H61.85c-1.241 0-2.248 1.007-2.248 2.248v49.614c0 1.242 1.007 2.248 2.248 2.248h49.614c.596 0 1.168-.237 1.59-.658.421-.422.658-.994.658-1.59V61.85c0-.596-.237-1.168-.658-1.59-.422-.421-.994-.658-1.59-.658zM96.242 97.944h-4.72v-9.33h-9.635v9.33H77.07v-22.48h4.817v9.297h9.634v-9.296h4.817l-.096 22.479z" transform="translate(-1467 -157) translate(1467 157)"/>
            </g>
        </g>
    </g>
</svg>
